<svg width="24" height="24" viewBox="0 0 24 24" fill="none" xmlns="http://www.w3.org/2000/svg">
<path d="M3 17.9799V6.01995C3 4.33995 4.34 2.99995 6.02 2.99995H17.98C19.66 2.99995 21 4.33995 21 6.01995V17.9799C21 19.6599 19.66 20.9999 17.98 20.9999H6.02C4.34 20.9999 3 19.6599 3 17.9799Z" stroke="#252C33" stroke-width="1.5" stroke-linecap="round" stroke-linejoin="round"/>
<path d="M9.01001 14.9999C9.01001 16.6599 7.67001 17.9999 6.01001 17.9999" stroke="#252C33" stroke-width="1.5" stroke-linecap="round" stroke-linejoin="round"/>
<path d="M8.99023 9.01001V6.01001C8.99023 4.34001 7.65023 3.00001 5.98023 3.00001" stroke="#252C33" stroke-width="1.5" stroke-linecap="round" stroke-linejoin="round"/>
<path d="M15 9.01001V6.01001C15 4.34001 16.34 3.00001 18.01 3.00001" stroke="#252C33" stroke-width="1.5" stroke-linecap="round" stroke-linejoin="round"/>
<path d="M15 14.9999C15 16.6599 16.34 17.9999 18 17.9999" stroke="#252C33" stroke-width="1.5" stroke-linecap="round" stroke-linejoin="round"/>
</svg>
